<svg width="20" height="20" viewBox="0 0 20 20" fill="none" xmlns="http://www.w3.org/2000/svg">
<path d="M3.07692 0C1.38077 0 0 1.38077 0 3.07692V16.9231C0 18.6192 1.38077 20 3.07692 20H13.0769C13.8946 20 15.03 18.8192 16.3462 17.4762C16.5308 17.2885 16.7077 17.1123 16.8992 16.9231C17.0885 16.7323 17.2885 16.5308 17.4762 16.3462C18.82 15.0292 20 13.8946 20 13.0769V3.07692C20 1.38077 18.6192 0 16.9231 0H3.07692ZM3.07692 1.53846H16.9231C17.3311 1.53846 17.7224 1.70055 18.0109 1.98907C18.2995 2.27758 18.4615 2.6689 18.4615 3.07692V13.0769C18.4615 13.8423 17.6908 13.8462 16.9231 13.8462H14.6154C14.1915 13.8462 13.8462 14.1915 13.8462 14.6154V16.9715C13.8462 17.6538 13.8477 18.32 13.2931 18.4615H3.07692C2.6689 18.4615 2.27758 18.2995 1.98907 18.0109C1.70055 17.7224 1.53846 17.3311 1.53846 16.9231V3.07692C1.53846 2.6689 1.70055 2.27758 1.98907 1.98907C2.27758 1.70055 2.6689 1.53846 3.07692 1.53846ZM5.24077 6.15385C5.03676 6.17292 4.84868 6.27226 4.71791 6.43001C4.58714 6.58775 4.52439 6.79099 4.54346 6.995C4.56254 7.19901 4.66187 7.38709 4.81962 7.51786C4.97737 7.64863 5.1806 7.71138 5.38462 7.69231H14.6154C14.8194 7.69231 15.0151 7.61126 15.1593 7.46701C15.3036 7.32275 15.3846 7.12709 15.3846 6.92308C15.3846 6.71906 15.3036 6.52341 15.1593 6.37915C15.0151 6.23489 14.8194 6.15385 14.6154 6.15385H5.38462C5.36053 6.15271 5.3364 6.15271 5.31231 6.15385C5.28847 6.15274 5.2646 6.15274 5.24077 6.15385ZM5.24077 10C5.03676 10.0191 4.84868 10.1184 4.71791 10.2762C4.58714 10.4339 4.52439 10.6371 4.54346 10.8412C4.56254 11.0452 4.66187 11.2332 4.81962 11.364C4.97737 11.4948 5.1806 11.5575 5.38462 11.5385H13.0769C13.2809 11.5385 13.4766 11.4574 13.6209 11.3132C13.7651 11.1689 13.8462 10.9732 13.8462 10.7692C13.8462 10.5652 13.7651 10.3696 13.6209 10.2253C13.4766 10.081 13.2809 10 13.0769 10H5.38462C5.36053 9.99887 5.3364 9.99887 5.31231 10C5.28847 9.99889 5.2646 9.99889 5.24077 10Z" fill="#757575"/>
</svg>
